<svg width="34" height="36" viewBox="0 0 34 36" fill="none" xmlns="http://www.w3.org/2000/svg">
<g filter="url(#filter0_d_714_147)">
<path d="M5.75001 8.125V8.125C5.75001 8.00894 5.75001 7.95091 5.75162 7.90184C5.80334 6.322 7.07202 5.05332 8.65185 5.00161C8.70092 5 8.75895 5 8.87501 5L26.1071 5C26.4753 5 26.6594 5 26.7893 5.09222C26.8352 5.12476 26.8752 5.1648 26.9078 5.21066C27 5.34064 27 5.52471 27 5.89286V5.89286C27 8.10174 27 9.20619 26.4467 9.98601C26.2514 10.2612 26.0112 10.5014 25.736 10.6967C24.9562 11.25 23.8517 11.25 21.6429 11.25H20.75M5.75001 8.125V8.125C5.75001 8.24106 5.75001 8.29909 5.75162 8.34816C5.80334 9.928 7.07202 11.1967 8.65185 11.2484C8.70092 11.25 8.75895 11.25 8.87501 11.25L26.25 11.25C27.1928 11.25 27.6642 11.25 27.9571 11.5429C28.25 11.8358 28.25 12.3072 28.25 13.25L28.25 16.25M5.75001 8.125L5.75001 22.25C5.75001 24.1356 5.75001 25.0784 6.3358 25.6642C6.92158 26.25 7.86439 26.25 9.75001 26.25L26.25 26.25C27.1928 26.25 27.6642 26.25 27.9571 25.9571C28.25 25.6642 28.25 25.1928 28.25 24.25L28.25 21.25M28.25 21.25H22.75C21.8072 21.25 21.3358 21.25 21.0429 20.9571C20.75 20.6642 20.75 20.1928 20.75 19.25V18.25C20.75 17.3072 20.75 16.8358 21.0429 16.5429C21.3358 16.25 21.8072 16.25 22.75 16.25H28.25M28.25 21.25L28.25 16.25" stroke="white" stroke-width="2"/>
</g>
<defs>
<filter id="filter0_d_714_147" x="-2" y="0" width="38" height="38" filterUnits="userSpaceOnUse" color-interpolation-filters="sRGB">
<feFlood flood-opacity="0" result="BackgroundImageFix"/>
<feColorMatrix in="SourceAlpha" type="matrix" values="0 0 0 0 0 0 0 0 0 0 0 0 0 0 0 0 0 0 127 0" result="hardAlpha"/>
<feOffset dy="4"/>
<feGaussianBlur stdDeviation="2"/>
<feComposite in2="hardAlpha" operator="out"/>
<feColorMatrix type="matrix" values="0 0 0 0 0 0 0 0 0 0 0 0 0 0 0 0 0 0 0.25 0"/>
<feBlend mode="normal" in2="BackgroundImageFix" result="effect1_dropShadow_714_147"/>
<feBlend mode="normal" in="SourceGraphic" in2="effect1_dropShadow_714_147" result="shape"/>
</filter>
</defs>
</svg>
