<svg width="36" height="38" viewBox="0 0 36 38" fill="none" xmlns="http://www.w3.org/2000/svg">
<g filter="url(#filter0_d_714_149)">
<path fill-rule="evenodd" clip-rule="evenodd" d="M15.4077 18.0728L9.05975 16.0744C6.57336 15.2916 5.33016 14.9003 5.33016 14.1667C5.33016 13.4331 6.57336 13.0417 9.05975 12.259L26.1809 6.86902C27.8471 6.34446 28.6802 6.08219 29.1098 6.52683C29.5395 6.97147 29.2488 7.7951 28.6674 9.44236L22.886 25.8231C22.1003 28.0491 21.7075 29.1621 21 29.1621C20.2925 29.1621 19.8997 28.0491 19.114 25.8231L19.114 25.8231L19.114 25.8231L16.8641 19.4483L23.1866 13.477C23.5881 13.0978 23.6062 12.4649 23.227 12.0634C22.8478 11.6619 22.2149 11.6438 21.8134 12.023L15.4077 18.0728Z" fill="white"/>
</g>
<defs>
<filter id="filter0_d_714_149" x="-4" y="0" width="44" height="42" filterUnits="userSpaceOnUse" color-interpolation-filters="sRGB">
<feFlood flood-opacity="0" result="BackgroundImageFix"/>
<feColorMatrix in="SourceAlpha" type="matrix" values="0 0 0 0 0 0 0 0 0 0 0 0 0 0 0 0 0 0 127 0" result="hardAlpha"/>
<feOffset dy="4"/>
<feGaussianBlur stdDeviation="2"/>
<feComposite in2="hardAlpha" operator="out"/>
<feColorMatrix type="matrix" values="0 0 0 0 0 0 0 0 0 0 0 0 0 0 0 0 0 0 0.25 0"/>
<feBlend mode="normal" in2="BackgroundImageFix" result="effect1_dropShadow_714_149"/>
<feBlend mode="normal" in="SourceGraphic" in2="effect1_dropShadow_714_149" result="shape"/>
</filter>
</defs>
</svg>
